<svg xmlns="http://www.w3.org/2000/svg" viewBox="0 0 80 60" width="80" height="60">
  <defs>
    <linearGradient id="fwGrad" x1="0%" y1="0%" x2="0%" y2="100%">
      <stop offset="0%" stop-color="#b71c1c"/>
      <stop offset="100%" stop-color="#7f0000"/>
    </linearGradient>
  </defs>
  <rect x="6" y="8" width="68" height="44" rx="4" fill="url(#fwGrad)" stroke="#4a0000" stroke-width="1.5"/>
  <!-- 벽돌 패턴 -->
  <line x1="6" y1="20" x2="74" y2="20" stroke="#fff" stroke-width="0.8" opacity="0.6"/>
  <line x1="6" y1="32" x2="74" y2="32" stroke="#fff" stroke-width="0.8" opacity="0.6"/>
  <line x1="6" y1="44" x2="74" y2="44" stroke="#fff" stroke-width="0.8" opacity="0.6"/>
  <line x1="22" y1="8" x2="22" y2="20" stroke="#fff" stroke-width="0.8" opacity="0.6"/>
  <line x1="46" y1="8" x2="46" y2="20" stroke="#fff" stroke-width="0.8" opacity="0.6"/>
  <line x1="14" y1="20" x2="14" y2="32" stroke="#fff" stroke-width="0.8" opacity="0.6"/>
  <line x1="36" y1="20" x2="36" y2="32" stroke="#fff" stroke-width="0.8" opacity="0.6"/>
  <line x1="58" y1="20" x2="58" y2="32" stroke="#fff" stroke-width="0.8" opacity="0.6"/>
  <line x1="22" y1="32" x2="22" y2="44" stroke="#fff" stroke-width="0.8" opacity="0.6"/>
  <line x1="46" y1="32" x2="46" y2="44" stroke="#fff" stroke-width="0.8" opacity="0.6"/>
  <line x1="14" y1="44" x2="14" y2="52" stroke="#fff" stroke-width="0.8" opacity="0.6"/>
  <line x1="36" y1="44" x2="36" y2="52" stroke="#fff" stroke-width="0.8" opacity="0.6"/>
  <line x1="58" y1="44" x2="58" y2="52" stroke="#fff" stroke-width="0.8" opacity="0.6"/>
  <!-- 불꽃 아이콘 -->
  <path d="M40 22 Q36 30 40 38 Q44 30 40 22 Z" fill="#ff9800"/>
  <path d="M40 28 Q38 33 40 38 Q42 33 40 28 Z" fill="#ffeb3b"/>
  <text x="40" y="58" text-anchor="middle" font-size="6" font-weight="bold" fill="#fff">FIREWALL</text>
</svg>
